<svg width="1400" height="500" viewBox="0 0 1400 500"
xmlns="http://www.w3.org/2000/svg">

<defs>

<linearGradient id="background"
x1="0%" y1="0%"
x2="100%" y2="100%">

<stop offset="0%" stop-color="#FFFFFF"/>
<stop offset="55%" stop-color="#F5F9FF"/>
<stop offset="100%" stop-color="#E8F2FF"/>

</linearGradient>

<linearGradient id="title"
x1="0%" y1="0%"
x2="100%" y2="0%">

<stop offset="0%" stop-color="#173B75"/>
<stop offset="65%" stop-color="#2878D4"/>
<stop offset="100%" stop-color="#55A8FF"/>

</linearGradient>

<filter id="shadow">

<feDropShadow
dx="0"
dy="8"
stdDeviation="12"
flood-opacity="0.12"/>

</filter>

</defs>


<!-- BACKGROUND -->

<rect
width="1400"
height="500"
rx="28"
fill="url(#background)"
/>


<!-- SOFT DECORATION -->

<circle
cx="1250"
cy="80"
r="190"
fill="#DDEEFF"
opacity="0.65"
/>

<circle
cx="1080"
cy="480"
r="230"
fill="#E5F2FF"
opacity="0.8"
/>

<circle
cx="40"
cy="470"
r="150"
fill="#EEF7FF"
opacity="0.9"
/>


<!-- TOP BADGE -->

<rect
x="70"
y="40"
width="340"
height="50"
rx="25"
fill="#FFFFFF"
stroke="#D7E6F5"
filter="url(#shadow)"
/>

<circle
cx="100"
cy="65"
r="7"
fill="#28B67A"
/>

<text
x="120"
y="72"
font-family="Arial, Helvetica, sans-serif"
font-size="18"
fill="#526984">

ASPIRING  |  INNOVATING  |  GROWING

</text>


<!-- NAME -->

<text
x="70"
y="165"
font-family="Arial, Helvetica, sans-serif"
font-size="62"
font-weight="800"
letter-spacing="1"
fill="url(#title)">

DHINESHKUMAR S

</text>


<!-- MAIN FIELD -->

<text
x="72"
y="210"
font-family="Arial, Helvetica, sans-serif"
font-size="25"
font-weight="600"
letter-spacing="1"
fill="#24456E">

AI / ML  ×  DATA SCIENCE  ×  FULL STACK

</text>


<!-- TAGLINE -->

<line
x1="72"
y1="245"
x2="125"
y2="245"
stroke="#2878D4"
stroke-width="4"
/>

<text
x="145"
y="252"
font-family="Arial, Helvetica, sans-serif"
font-size="22"
fill="#425E7E">

Turning Ideas Into Working Systems

</text>


<text
x="145"
y="282"
font-family="Arial, Helvetica, sans-serif"
font-size="17"
fill="#71869F">

Building intelligent solutions for real-world problems

</text>


<!-- AI CARD -->

<rect
x="65"
y="320"
width="160"
height="105"
rx="18"
fill="#FFFFFF"
stroke="#DFEAF6"
filter="url(#shadow)"
/>

<circle
cx="105"
cy="352"
r="21"
fill="#E8F3FF"
/>

<text
x="94"
y="359"
font-family="Arial"
font-size="18"
font-weight="700"
fill="#2878D4">

AI

</text>

<text
x="85"
y="392"
font-family="Arial"
font-size="16"
font-weight="700"
fill="#24456E">

AI / ML

</text>

<text
x="85"
y="412"
font-family="Arial"
font-size="12"
fill="#71869F">

Intelligent Systems

</text>


<!-- DATA SCIENCE CARD -->

<rect
x="240"
y="320"
width="175"
height="105"
rx="18"
fill="#FFFFFF"
stroke="#DFEAF6"
filter="url(#shadow)"
/>

<circle
cx="280"
cy="352"
r="21"
fill="#E8F3FF"
/>

<rect
x="268"
y="346"
width="5"
height="12"
fill="#2878D4"/>

<rect
x="276"
y="341"
width="5"
height="17"
fill="#2878D4"/>

<rect
x="284"
y="337"
width="5"
height="21"
fill="#2878D4"/>

<text
x="258"
y="392"
font-family="Arial"
font-size="16"
font-weight="700"
fill="#24456E">

Data Science

</text>

<text
x="258"
y="412"
font-family="Arial"
font-size="12"
fill="#71869F">

Data to Insights

</text>


<!-- FULL STACK CARD -->

<rect
x="430"
y="320"
width="170"
height="105"
rx="18"
fill="#FFFFFF"
stroke="#DFEAF6"
filter="url(#shadow)"
/>

<circle
cx="468"
cy="352"
r="21"
fill="#E8F3FF"
/>

<text
x="451"
y="359"
font-family="Arial"
font-size="17"
font-weight="700"
fill="#2878D4">

&lt;/&gt;

</text>

<text
x="450"
y="392"
font-family="Arial"
font-size="16"
font-weight="700"
fill="#24456E">

Full Stack

</text>

<text
x="450"
y="412"
font-family="Arial"
font-size="12"
fill="#71869F">

End-to-End Apps

</text>


<!-- COMPUTER VISION CARD -->

<rect
x="615"
y="320"
width="185"
height="105"
rx="18"
fill="#FFFFFF"
stroke="#DFEAF6"
filter="url(#shadow)"
/>

<circle
cx="655"
cy="352"
r="21"
fill="#E8F3FF"
/>

<ellipse
cx="655"
cy="352"
rx="11"
ry="7"
fill="none"
stroke="#2878D4"
stroke-width="3"/>

<circle
cx="655"
cy="352"
r="3"
fill="#2878D4"/>

<text
x="640"
y="392"
font-family="Arial"
font-size="16"
font-weight="700"
fill="#24456E">

Computer Vision

</text>

<text
x="640"
y="412"
font-family="Arial"
font-size="12"
fill="#71869F">

Intelligent Vision

</text>


<!-- HACKATHON CARD -->

<rect
x="815"
y="320"
width="170"
height="105"
rx="18"
fill="#FFFFFF"
stroke="#DFEAF6"
filter="url(#shadow)"
/>

<circle
cx="855"
cy="352"
r="21"
fill="#FFF2DD"
/>

<path
d="M847 360 L856 342 L865 349 L860 354 L865 360 L850 363 Z"
fill="#E99835"
/>

<text
x="840"
y="392"
font-family="Arial"
font-size="16"
font-weight="700"
fill="#24456E">

Hackathons

</text>

<text
x="840"
y="412"
font-family="Arial"
font-size="12"
fill="#71869F">

Build & Innovate

</text>


<!-- LAPTOP -->

<rect
x="1080"
y="180"
width="245"
height="155"
rx="12"
fill="#26384D"
filter="url(#shadow)"
/>

<rect
x="1092"
y="192"
width="221"
height="130"
rx="7"
fill="#102033"
/>


<!-- LAPTOP CONTENT -->

<text
x="1120"
y="230"
font-family="Arial"
font-size="18"
font-weight="600"
fill="#FFFFFF">

BUILD

</text>

<text
x="1120"
y="258"
font-family="Arial"
font-size="18"
font-weight="600"
fill="#78B9FF">

LEARN

</text>

<text
x="1120"
y="286"
font-family="Arial"
font-size="18"
font-weight="600"
fill="#A6D5FF">

INNOVATE

</text>

<text
x="1120"
y="314"
font-family="Arial"
font-size="18"
font-weight="600"
fill="#FFFFFF">

SHIP

</text>


<!-- LAPTOP BASE -->

<path
d="M1050 335 L1355 335 L1380 360 L1025 360 Z"
fill="#B8C5D3"
/>


<!-- PLANT -->

<rect
x="1005"
y="315"
width="45"
height="65"
rx="10"
fill="#FFFFFF"
filter="url(#shadow)"
/>

<ellipse
cx="1027"
cy="285"
rx="65"
ry="42"
fill="#D7F0DF"
/>

<ellipse
cx="990"
cy="275"
rx="35"
ry="25"
fill="#BDE5C9"
/>

<ellipse
cx="1060"
cy="265"
rx="38"
ry="27"
fill="#C7EBD2"
/>


<!-- RIGHT SIDE TEXT -->

<text
x="1000"
y="80"
font-family="Arial"
font-size="20"
font-weight="600"
fill="#24456E">

CODE

</text>

<text
x="1000"
y="108"
font-family="Arial"
font-size="20"
font-weight="600"
fill="#24456E">

LEARN

</text>

<text
x="1000"
y="136"
font-family="Arial"
font-size="20"
font-weight="600"
fill="#2878D4">

INNOVATE

</text>


<!-- FOOTER -->

<text
x="70"
y="470"
font-family="Arial"
font-size="16"
fill="#60758E">

INDIA

</text>

<text
x="135"
y="470"
font-family="Arial"
font-size="16"
fill="#A0ADBA">

|

</text>

<text
x="165"
y="470"
font-family="Arial"
font-size="16"
fill="#60758E">

STUDENT DEVELOPER

</text>

<text
x="340"
y="470"
font-family="Arial"
font-size="16"
fill="#A0ADBA">

|

</text>

<text
x="370"
y="470"
font-family="Arial"
font-size="16"
fill="#60758E">

REAL-WORLD IMPACT

</text>


<!-- FOOTER SLOGAN -->

<text
x="1080"
y="470"
font-family="Arial"
font-size="15"
font-weight="700"
letter-spacing="3"
fill="#2878D4">

MAKE IDEAS WORK

</text>

</svg>
